<?xml version="1.0" encoding="UTF-8"?> <svg xmlns="http://www.w3.org/2000/svg" id="Layer_2" data-name="Layer 2" viewBox="0 0 141.33 39.23"><defs><style> .cls-1 { fill: #e3000f; } .cls-1, .cls-2 { fill-rule: evenodd; stroke-width: 0px; } .cls-2 { fill: #004183; } </style></defs><g id="Layer_1-2" data-name="Layer 1"><g><g><g><path class="cls-2" d="m19.28,0c10.65,0,19.28,8.78,19.28,19.61,0,1.05-.08,2.09-.24,3.1h-.44c.16-1.01.25-2.04.25-3.1C38.12,9.03,29.68.45,19.28.45S.44,9.03.44,19.61s8.44,19.17,18.84,19.17c5.96,0,11.27-2.81,14.72-7.2h.56c-3.52,4.65-9.06,7.65-15.28,7.65C8.63,39.23,0,30.45,0,19.61S8.63,0,19.28,0Z"></path><path class="cls-2" d="m19.28.94c10.14,0,18.36,8.36,18.36,18.67,0,1.06-.09,2.09-.25,3.1h-.42c.17-1.01.26-2.04.26-3.1C37.22,9.53,29.19,1.36,19.28,1.36S1.34,9.53,1.34,19.61s8.03,18.25,17.94,18.25c5.41,0,10.26-2.43,13.55-6.29h.55c-3.37,4.1-8.43,6.71-14.09,6.71C9.14,38.29.92,29.93.92,19.61S9.14.94,19.28.94Z"></path><path class="cls-2" d="m19.28,1.83c9.65,0,17.48,7.96,17.48,17.78,0,1.06-.09,2.09-.27,3.1h-.4c.18-1.01.27-2.04.27-3.1,0-9.6-7.65-17.38-17.08-17.38S2.2,10.02,2.2,19.61s7.65,17.38,17.08,17.38c4.88,0,9.27-2.08,12.38-5.41h.54c-3.2,3.57-7.8,5.81-12.93,5.81-9.65,0-17.48-7.96-17.48-17.78S9.63,1.83,19.28,1.83Z"></path><path class="cls-2" d="m19.28,2.69c9.19,0,16.64,7.58,16.64,16.93,0,1.06-.1,2.09-.28,3.1h-.38c.19-1,.29-2.04.29-3.1,0-9.14-7.28-16.54-16.26-16.54S3.02,10.48,3.02,19.61s7.28,16.54,16.26,16.54c4.36,0,8.31-1.74,11.23-4.58h.54c-3.01,3.07-7.17,4.96-11.77,4.96-9.19,0-16.64-7.58-16.64-16.93S10.09,2.69,19.28,2.69Z"></path><path class="cls-2" d="m19.28,3.5c8.75,0,15.84,7.22,15.84,16.12,0,1.06-.1,2.1-.29,3.1h-.37c.2-1,.3-2.04.3-3.1,0-8.7-6.93-15.75-15.48-15.75S3.8,10.92,3.8,19.61s6.93,15.75,15.48,15.75c3.84,0,7.36-1.43,10.07-3.79h.54c-2.81,2.58-6.53,4.15-10.61,4.15-8.75,0-15.84-7.22-15.84-16.12S10.53,3.5,19.28,3.5Z"></path></g><g><path class="cls-2" d="m3.87,22.36h4.17l-.06.38H3.87v-.38h0Zm7.03,0h8.44l-.16.38h-8.34l.06-.38h0Zm12.46,0h11.47v.38h-11.63l.16-.38Z"></path><path class="cls-2" d="m3.87,21.43h4.32l-.06.38H3.87v-.38h0Zm7.18,0h8.69l-.16.38h-8.59l.06-.38h0Zm12.71,0h11.06v.38h-11.23l.16-.38Z"></path><path class="cls-2" d="m3.87,20.49h4.47l-.06.38H3.87v-.38h0Zm7.34,0h8.94l-.16.38h-8.84l.06-.38h0Zm12.96,0h10.66v.38h-10.83l.16-.38Z"></path><path class="cls-2" d="m3.87,19.56h4.62l-.06.38H3.87v-.38h0Zm7.49,0h9.19l-.16.38h-9.09l.06-.38h0Zm13.2,0h10.26v.38h-10.42l.16-.38Z"></path><path class="cls-2" d="m3.87,18.62h4.77l-.06.38H3.87v-.38h0Zm7.65,0h9.44l-.16.38h-9.33l.06-.38h0Zm13.45,0h9.86v.38h-10.02l.16-.38h0Z"></path></g><g><polygon class="cls-1" points="10.11 27.08 12.11 15.03 12.57 14.97 10.63 27.08 10.11 27.08"></polygon><polygon class="cls-1" points="9.26 27.08 11.48 13.43 11.87 14.11 9.77 27.09 9.26 27.08"></polygon><polygon class="cls-1" points="8.36 27.09 10.9 12.06 11.35 12 8.91 27.09 8.36 27.09"></polygon><polygon class="cls-1" points="7.62 27.08 10.31 10.69 10.62 11.49 8.08 27.09 7.62 27.08"></polygon><polygon class="cls-1" points="6.78 27.09 9.69 9.31 10.14 9.31 7.28 27.08 6.78 27.09"></polygon><path class="cls-1" d="m17.5,26.58l-1.62-3.84h-.45l-.37-.86,2.22,5.2.23-.5h0Zm-3.37-7.96l-3.94-9.31h-.49s3.97,9.31,3.97,9.31h.46Z"></path><path class="cls-1" d="m17.82,25.63l-1.2-2.88h-.47l1.45,3.5.22-.62h0Zm-2.9-7l-3.86-9.31h-.47s3.86,9.31,3.86,9.31h.47Z"></path><path class="cls-1" d="m18.36,24.57l-.76-1.83h-.48l.98,2.37.25-.54h0Zm-2.47-5.95l-3.89-9.37-.46.05,3.87,9.33h.48Z"></path><path class="cls-1" d="m18.73,23.5l-.32-.76h-.48l.6,1.44.2-.67h0Zm-2.02-4.88l-3.88-9.35-.46.05,3.86,9.3h.48Z"></path><path class="cls-1" d="m17.61,18.65l-3.89-9.38-.46.05,3.86,9.3h.48v.03h.01Zm1.22,4.09l.19.47.21-.47h-.41Z"></path><polygon class="cls-1" points="17.28 27.08 19.17 22.74 19.31 22.74 19.24 22.58 25.03 9.35 25.13 10.21 17.75 27.08 17.28 27.08"></polygon><polygon class="cls-1" points="18.06 27.11 25.26 10.83 25.37 11.66 18.52 27.11 18.06 27.11"></polygon><polygon class="cls-1" points="19.09 27.06 25.47 12.04 25.62 13.08 19.56 27.04 19.09 27.06"></polygon><polygon class="cls-1" points="20.01 27.03 25.75 13.66 25.89 14.45 20.49 27.01 20.01 27.03"></polygon><polygon class="cls-1" points="20.86 27.06 25.99 15.15 26.08 16.04 21.36 27.02 20.86 27.06"></polygon><path class="cls-1" d="m28.42,27.08l-.72-4.26h-.52s.7,4.27.7,4.27h.55Zm-1.43-8.46l-1.57-9.31h-.45s1.52,9.31,1.52,9.31h.5Z"></path><path class="cls-1" d="m29.28,27.11l-.72-4.3h-.53s.7,4.3.7,4.3h.55Zm-1.43-8.48l-1.57-9.31h-.46s1.52,9.31,1.52,9.31h.51Z"></path><path class="cls-1" d="m30.11,27.11l-.72-4.3h-.53s.7,4.3.7,4.3h.55Zm-1.43-8.48l-1.57-9.31h-.46s1.52,9.31,1.52,9.31h.51Z"></path><path class="cls-1" d="m30.95,27.11l-.72-4.31h-.53s.7,4.31.7,4.31h.55Zm-1.43-8.48l-1.57-9.31h-.46s1.52,9.31,1.52,9.31h.51Z"></path><path class="cls-1" d="m31.78,27.11l-.73-4.32h0s-.53,0-.53,0l.7,4.31h.55Zm-1.43-8.48l-1.57-9.31h-.46s1.52,9.31,1.52,9.31h.51Z"></path></g></g><g><path class="cls-2" d="m57.98,12.07h-10.12c.15.9.54,1.61,1.17,2.14.63.53,1.44.79,2.42.79,1.18,0,2.18-.41,3.03-1.24l2.64,1.25c-.66.94-1.45,1.63-2.37,2.09-.92.45-2.02.67-3.28.67-1.97,0-3.57-.62-4.8-1.86-1.24-1.24-1.85-2.79-1.85-4.66s.62-3.5,1.85-4.77c1.24-1.27,2.78-1.9,4.65-1.9,1.98,0,3.59.63,4.83,1.89,1.24,1.26,1.86,2.92,1.86,5v.6h-.01Zm-3.14-2.46c-.21-.69-.62-1.25-1.23-1.68-.62-.43-1.33-.64-2.14-.64-.88,0-1.65.24-2.32.73-.41.3-.8.83-1.16,1.59h6.84ZM68.26.04h3.15v17.43h-3.15v-1.34c-.62.58-1.24,1-1.85,1.26-.62.26-1.29.39-2.02.39-1.63,0-3.03-.63-4.22-1.89-1.19-1.25-1.78-2.82-1.78-4.68s.58-3.52,1.72-4.76c1.15-1.24,2.54-1.85,4.18-1.85.76,0,1.46.14,2.13.42.66.28,1.27.71,1.84,1.27V.04h0Zm-3.32,7.43c-.98,0-1.79.34-2.43,1.03-.65.69-.97,1.57-.97,2.65s.33,1.98.99,2.68c.66.7,1.47,1.05,2.43,1.05s1.82-.34,2.47-1.03c.66-.69.98-1.59.98-2.71s-.33-1.98-.98-2.66c-.65-.67-1.48-1.01-2.48-1.01h0Zm8.05-2.58h3.2v6.04c0,1.18.08,1.99.24,2.45.16.46.42.81.78,1.07.36.25.81.38,1.33.38s.97-.13,1.34-.37c.37-.25.64-.62.82-1.1.13-.36.2-1.14.2-2.32v-6.15h3.15v5.32c0,2.19-.17,3.69-.52,4.5-.42.99-1.05,1.74-1.87,2.27-.82.52-1.87.79-3.15.79-1.38,0-2.49-.31-3.35-.92-.85-.62-1.45-1.47-1.8-2.57-.25-.76-.37-2.15-.37-4.15v-5.23Z"></path><path class="cls-1" d="m45.14,38.88l2.36-17h.35l6.92,13.95,6.87-13.95h.26l2.45,17h-1.65l-1.7-12.17-6.02,12.17h-.45l-6.08-12.26-1.63,12.26h-1.67Zm33.18-12.57v12.57h-1.61v-2.16c-.68.82-1.44,1.44-2.28,1.85-.84.41-1.76.62-2.76.62-1.78,0-3.29-.64-4.55-1.93-1.26-1.29-1.89-2.85-1.89-4.7s.64-3.35,1.91-4.63c1.27-1.28,2.79-1.93,4.58-1.93,1.03,0,1.96.22,2.8.65.83.43,1.57,1.09,2.2,1.97v-2.31h1.61Zm-6.48,1.26c-.9,0-1.73.22-2.49.66-.76.44-1.37,1.06-1.82,1.85-.45.8-.67,1.64-.67,2.53s.23,1.72.68,2.53c.45.81,1.06,1.43,1.83,1.88.77.45,1.59.68,2.46.68s1.72-.22,2.51-.67c.79-.45,1.4-1.05,1.83-1.81.43-.76.64-1.61.64-2.56,0-1.45-.48-2.66-1.44-3.63-.95-.97-2.13-1.46-3.53-1.46h0Zm8.55-1.26h1.61v2.25c.65-.86,1.37-1.5,2.15-1.93.79-.42,1.65-.64,2.57-.64s1.78.24,2.51.71c.73.48,1.27,1.12,1.62,1.93.35.81.52,2.06.52,3.77v6.46h-1.61v-5.99c0-1.44-.06-2.41-.19-2.9-.2-.83-.56-1.45-1.09-1.87-.53-.42-1.23-.63-2.08-.63-.98,0-1.86.32-2.64.97-.78.64-1.29,1.44-1.53,2.4-.15.62-.23,1.76-.23,3.41v4.6h-1.61v-12.57h0Zm25.41-4.85v17.43h-1.61v-2.16c-.68.82-1.44,1.44-2.28,1.85-.84.41-1.76.62-2.76.62-1.78,0-3.29-.64-4.55-1.93-1.26-1.29-1.89-2.85-1.89-4.7s.64-3.35,1.91-4.63c1.27-1.28,2.79-1.93,4.58-1.93,1.03,0,1.96.22,2.8.66.83.44,1.57,1.1,2.2,1.98v-7.18h1.61Zm-6.48,6.11c-.9,0-1.73.22-2.49.66-.76.44-1.37,1.06-1.82,1.85-.45.8-.68,1.64-.68,2.53s.22,1.72.68,2.53c.45.81,1.06,1.43,1.83,1.88.77.45,1.59.68,2.46.68s1.72-.22,2.51-.67c.79-.45,1.4-1.05,1.83-1.81.43-.76.64-1.61.64-2.56,0-1.45-.48-2.66-1.44-3.63-.95-.97-2.13-1.46-3.53-1.46h0Zm21.1-1.26v12.57h-1.61v-2.16c-.68.82-1.44,1.44-2.28,1.85-.84.41-1.76.62-2.76.62-1.78,0-3.29-.64-4.55-1.93-1.26-1.29-1.89-2.85-1.89-4.7s.64-3.35,1.91-4.63c1.27-1.28,2.79-1.93,4.58-1.93,1.03,0,1.96.22,2.8.65.83.43,1.57,1.09,2.2,1.97v-2.31h1.61Zm-6.48,1.26c-.9,0-1.73.22-2.49.66-.76.44-1.37,1.06-1.82,1.85-.45.8-.67,1.64-.67,2.53s.22,1.72.68,2.53c.45.81,1.06,1.43,1.83,1.88.77.45,1.59.68,2.46.68s1.72-.22,2.51-.67c.79-.45,1.4-1.05,1.83-1.81.43-.76.64-1.61.64-2.56,0-1.45-.48-2.66-1.44-3.63-.95-.97-2.13-1.46-3.53-1.46h0Zm9.95-5.94h1.61v4.69h2.56v1.4h-2.56v11.17h-1.61v-11.17h-2.2v-1.4h2.2v-4.69h0Zm15.66,13.09l1.37.72c-.45.87-.97,1.58-1.55,2.12-.59.53-1.25.94-1.98,1.22-.74.28-1.57.42-2.49.42-2.06,0-3.67-.67-4.83-2.01-1.16-1.34-1.74-2.86-1.74-4.55,0-1.59.49-3.01,1.48-4.25,1.24-1.58,2.91-2.38,5-2.38s3.87.81,5.15,2.43c.91,1.14,1.38,2.57,1.39,4.29h-11.36c.03,1.46.5,2.65,1.41,3.58.91.93,2.03,1.4,3.36,1.4.64,0,1.27-.11,1.88-.33.61-.22,1.12-.51,1.55-.88.43-.37.89-.95,1.38-1.77h0Zm.02-3.39c-.22-.86-.53-1.55-.95-2.07-.42-.52-.97-.93-1.65-1.25-.68-.32-1.4-.47-2.15-.47-1.24,0-2.31.39-3.2,1.19-.65.58-1.14,1.44-1.48,2.6h9.43Z"></path></g></g></g></svg> 